<svg viewBox="0 0 120 120" xmlns="http://www.w3.org/2000/svg">
  <g opacity="0.6" transform="scale(-1,1) translate(-120,0)">
    <path d="M 8 60 Q 30 40 60 20 Q 85 5 115 8" stroke="#7B8776" stroke-width="1.3" fill="none" stroke-linecap="round"/>
    <ellipse cx="28" cy="52" rx="14" ry="6" fill="#B7BFAE" transform="rotate(-25 28 52)" opacity="0.72"/>
    <ellipse cx="20" cy="62" rx="11" ry="5" fill="#DDE3D7" transform="rotate(-10 20 62)" opacity="0.6"/>
    <ellipse cx="52" cy="34" rx="16" ry="6.5" fill="#7B8776" transform="rotate(-45 52 34)" opacity="0.65"/>
    <ellipse cx="43" cy="42" rx="12" ry="5" fill="#B7BFAE" transform="rotate(-35 43 42)" opacity="0.55"/>
    <ellipse cx="80" cy="18" rx="14" ry="5.5" fill="#B7BFAE" transform="rotate(-60 80 18)" opacity="0.65"/>
    <ellipse cx="70" cy="26" rx="11" ry="4.5" fill="#DDE3D7" transform="rotate(-52 70 26)" opacity="0.55"/>
    <circle cx="35" cy="49" r="2.5" fill="#C5A46D" opacity="0.5"/>
    <circle cx="58" cy="32" r="2" fill="#C5A46D" opacity="0.45"/>
    <path d="M 27 47 Q 30 52 33 57" stroke="#5E665A" stroke-width="0.5" fill="none" opacity="0.4"/>
  </g>
</svg>
